<?xml version="1.0" standalone="no"?>
<!DOCTYPE svg PUBLIC "-//W3C//DTD SVG 20010904//EN"
 "http://www.w3.org/TR/2001/REC-SVG-20010904/DTD/svg10.dtd">
<svg version="1.0" xmlns="http://www.w3.org/2000/svg"
 width="1150.000000pt" height="1150.000000pt" viewBox="0 0 1150.000000 1150.000000"
 preserveAspectRatio="xMidYMid meet">
<metadata>
Created by potrace 1.16, written by Peter Selinger 2001-2019
</metadata>
<g transform="translate(0.000000,1150.000000) scale(0.100000,-0.100000)"
fill="#000000" stroke="none">
<path d="M1 8743 c1 -1517 5 -2702 10 -2633 87 1393 685 2716 1674 3705 989
989 2312 1587 3705 1674 69 5 -1116 9 -2632 10 l-2758 1 1 -2757z"/>
<path d="M6110 11489 c1393 -87 2716 -685 3705 -1674 989 -989 1587 -2312
1674 -3705 5 -69 9 1116 10 2633 l1 2757 -2757 -1 c-1517 -1 -2702 -5 -2633
-10z"/>
<path d="M5374 10603 c-27 -27 -53 -95 -48 -123 6 -29 -9 -97 -56 -255 -78
-261 -157 -476 -177 -483 -10 -3 -14 27 -15 125 -4 227 0 282 34 479 27 159
18 183 -57 147 -58 -28 -72 -56 -101 -203 -49 -255 -185 -644 -214 -614 -4 5
-18 59 -30 119 -30 150 -42 448 -23 598 15 114 12 128 -30 175 -25 26 -68 29
-89 5 -35 -41 -61 -207 -62 -404 -1 -113 1 -129 19 -149 12 -13 22 -44 26 -78
15 -122 39 -261 50 -288 6 -16 13 -42 15 -58 7 -50 23 -100 44 -134 18 -29 22
-31 43 -21 47 24 66 59 144 263 50 130 87 203 96 189 4 -5 13 -69 21 -142 17
-139 24 -164 55 -181 25 -13 102 20 130 56 64 82 252 676 251 797 0 18 3 69 6
115 6 86 1 97 -32 65z"/>
<path d="M5922 10594 c-43 -15 -79 -37 -112 -68 -27 -25 -56 -46 -65 -46 -19
0 -19 1 6 54 25 50 20 79 -13 74 -43 -6 -77 -72 -158 -304 -21 -59 -64 -147
-91 -184 -10 -14 -22 -51 -25 -82 -6 -49 -4 -58 9 -58 9 0 21 9 27 21 7 11 14
19 16 16 3 -2 0 -54 -7 -114 -9 -92 -9 -122 5 -193 13 -69 21 -89 48 -117 63
-65 158 -69 278 -10 72 35 248 171 249 192 1 6 24 33 53 60 72 71 107 149 121
276 9 85 9 113 -5 177 -33 159 -116 275 -223 310 -48 17 -52 16 -113 -4z m90
-160 c68 -34 128 -169 128 -286 0 -85 -12 -126 -72 -246 -91 -181 -285 -293
-376 -217 -59 50 -71 191 -36 440 24 181 62 247 164 293 96 43 132 46 192 16z"/>
<path d="M6628 10523 c-26 -35 -47 -46 -62 -34 -8 7 -34 11 -57 9 -39 -3 -43
-6 -55 -40 -7 -21 -9 -48 -6 -63 9 -33 -55 -439 -124 -781 -13 -67 -24 -131
-24 -142 0 -29 17 -36 43 -19 22 14 43 69 91 237 83 289 113 384 122 387 10 3
119 -232 150 -323 23 -69 132 -290 150 -305 15 -12 78 -14 116 -3 16 5 68 119
68 152 0 9 9 53 20 97 20 77 67 518 77 718 4 80 3 97 -9 97 -16 0 -37 -16 -56
-41 -26 -35 -62 -193 -62 -272 0 -147 -21 -320 -56 -456 -18 -74 -36 -136 -39
-139 -3 -3 -10 -1 -16 5 -18 18 -90 194 -136 333 -44 134 -77 223 -114 312
-23 56 -24 100 -5 136 23 41 48 130 41 142 -10 16 -43 12 -57 -7z"/>
<path d="M4415 10523 c-11 -3 -27 -11 -35 -18 -8 -7 -34 -22 -57 -34 -55 -27
-65 -46 -44 -82 15 -26 14 -30 -8 -76 -31 -66 -303 -472 -335 -502 -14 -14
-29 -21 -33 -18 -8 9 19 155 63 335 48 191 36 237 -45 173 -64 -51 -78 -82
-91 -211 -6 -63 -18 -160 -27 -214 -8 -54 -13 -115 -10 -135 2 -20 0 -47 -4
-61 -12 -37 -41 -309 -34 -320 3 -5 2 -25 -3 -43 -5 -19 -6 -41 -1 -49 12 -22
68 -11 79 16 10 23 26 149 23 181 -1 11 3 47 8 80 22 139 25 141 84 58 22 -31
81 -99 131 -150 103 -105 121 -112 189 -66 59 39 175 143 175 157 0 6 -7 22
-16 34 l-15 22 -47 -39 c-71 -58 -86 -64 -121 -47 -34 18 -91 100 -152 219
l-43 85 24 34 c14 19 74 100 133 179 60 79 134 184 164 234 31 49 64 100 74
113 21 27 34 100 24 131 -6 21 -13 23 -50 14z"/>
<path d="M7373 10361 c-23 -11 -46 -28 -52 -39 -16 -31 -61 -358 -61 -449 0
-28 -7 -84 -15 -124 -20 -93 -37 -341 -25 -353 5 -5 25 -11 44 -13 43 -4 41
-9 55 174 6 73 17 147 24 164 l13 33 83 -145 c46 -79 96 -160 111 -179 15 -19
30 -44 34 -55 17 -52 76 -95 131 -95 51 0 185 62 185 85 0 13 -15 50 -25 63
-1 1 -22 -7 -46 -18 -105 -47 -136 -17 -248 248 -34 78 -61 151 -61 161 0 13
30 42 83 82 101 77 159 129 215 194 24 27 58 66 76 87 38 41 53 99 37 141 -10
27 -11 27 -87 21 -43 -3 -86 -10 -96 -15 -20 -11 -24 -34 -8 -44 20 -12 9 -63
-21 -105 -37 -51 -268 -277 -311 -304 -51 -33 -54 -12 -18 136 18 73 43 169
57 214 23 76 23 83 9 118 -17 41 -25 43 -83 17z"/>
<path d="M3590 10310 c-140 -33 -167 -48 -272 -158 -108 -113 -149 -193 -184
-357 -15 -71 -29 -150 -31 -175 -4 -51 -29 -300 -44 -433 -10 -93 -1 -134 27
-123 9 4 14 -1 14 -15 0 -11 7 -22 15 -25 17 -7 83 13 105 31 8 7 30 16 48 20
18 4 73 34 124 67 50 33 101 64 112 69 26 11 143 93 174 122 24 23 27 39 12
67 -9 18 -13 17 -63 -16 -28 -19 -77 -46 -107 -60 -30 -14 -90 -43 -133 -65
-43 -21 -85 -39 -93 -39 -8 0 -38 -10 -65 -21 -27 -12 -52 -19 -56 -16 -9 10
17 258 31 292 27 64 75 98 241 170 50 22 115 36 134 30 25 -8 40 14 47 66 5
35 2 47 -13 61 -17 16 -23 16 -93 -3 -89 -24 -167 -68 -223 -126 -68 -72 -70
-64 -27 127 49 216 79 290 117 290 8 0 26 9 40 20 41 32 128 53 188 46 62 -7
79 6 90 72 5 32 3 49 -9 67 -17 27 -41 30 -106 15z"/>
<path d="M8149 10243 c-51 -6 -71 -33 -107 -143 -39 -124 -47 -197 -26 -240
15 -30 15 -43 -1 -174 -20 -163 -24 -447 -7 -489 15 -36 37 -43 74 -25 l31 14
2 180 c3 184 32 404 75 569 25 96 53 266 49 290 -4 21 -25 25 -90 18z"/>
<path d="M8317 10163 c4 -42 10 -54 56 -96 29 -27 69 -57 90 -68 35 -18 42
-39 14 -39 -7 0 -27 -13 -44 -29 -35 -31 -48 -81 -58 -216 -3 -44 -13 -123
-21 -175 -18 -119 -32 -354 -22 -380 18 -48 75 27 99 128 10 43 25 122 34 177
16 105 92 423 105 445 11 18 168 -117 227 -194 76 -101 98 -157 98 -252 0 -81
0 -82 -40 -126 -22 -25 -56 -63 -74 -86 -41 -48 -139 -113 -197 -130 -23 -7
-68 -12 -101 -12 -53 0 -62 -3 -88 -30 -34 -35 -28 -55 21 -80 45 -22 204 -18
278 9 73 26 104 26 184 1 35 -11 88 -20 118 -20 48 0 54 2 54 21 0 36 -19 59
-48 59 -38 0 -232 33 -232 40 0 3 33 33 74 67 212 177 231 389 55 618 -57 75
-76 94 -170 175 -69 59 -200 150 -217 150 -5 0 -29 15 -53 34 -24 18 -57 36
-74 39 -16 3 -40 8 -51 12 -21 6 -21 4 -17 -42z"/>
<path d="M2684 9989 c-33 -38 -62 -79 -66 -89 -4 -10 -17 -24 -30 -31 -36 -19
-49 -41 -43 -75 4 -21 -1 -43 -14 -65 -20 -36 -63 -165 -106 -319 -44 -160
-66 -209 -113 -253 -44 -43 -62 -86 -62 -151 0 -35 2 -38 24 -32 27 7 29 24
-18 -159 -35 -132 -44 -215 -25 -215 29 0 58 31 73 78 8 26 26 92 40 147 14
55 38 132 53 172 l28 72 114 81 c62 45 125 86 138 91 13 5 40 21 59 35 19 15
37 24 40 21 7 -7 6 -165 -2 -325 -4 -103 -3 -113 12 -110 27 5 53 49 64 108
18 108 30 207 37 310 5 84 10 111 27 134 l21 28 -22 15 c-18 12 -20 21 -16 71
3 31 1 75 -4 97 -5 22 -6 58 -2 80 6 35 0 96 -16 173 -4 15 -13 22 -29 22 -13
0 -38 3 -55 6 -36 8 -40 27 -16 94 31 87 -14 82 -91 -11z m53 -311 c27 -29 31
-41 36 -111 3 -43 3 -101 0 -130 -5 -48 -9 -54 -48 -79 -23 -16 -47 -28 -51
-28 -5 0 -45 -18 -89 -40 -72 -36 -105 -47 -105 -36 0 2 15 41 34 87 18 46 37
100 41 119 4 19 18 55 30 80 12 25 25 59 29 75 12 50 45 95 70 95 12 0 36 -15
53 -32z"/>
<path d="M2290 9841 c0 -5 -15 -11 -32 -14 -77 -13 -152 -37 -225 -75 -43 -22
-104 -53 -137 -68 -74 -36 -112 -81 -119 -142 -3 -26 -9 -57 -12 -69 -11 -37
12 -29 129 42 59 36 114 65 123 65 14 0 15 -13 9 -103 -3 -57 -10 -118 -15
-135 -11 -37 -30 -319 -34 -482 -2 -140 10 -270 26 -270 7 0 24 16 40 34 25
33 27 41 27 132 0 99 22 314 41 394 6 25 19 97 29 160 10 63 24 143 29 177 12
65 5 99 -23 122 -9 7 -16 19 -16 26 0 20 59 52 110 59 72 11 90 28 90 84 0 44
-12 72 -32 72 -4 0 -8 -4 -8 -9z"/>
<path d="M9342 9789 c-21 -8 -82 -92 -82 -113 0 -6 -6 -23 -14 -38 -8 -14 -23
-51 -35 -82 -22 -58 -58 -122 -97 -168 -27 -34 -41 -103 -24 -123 10 -12 16
-13 27 -4 22 19 36 -2 23 -37 -6 -16 -12 -74 -12 -129 -2 -183 53 -293 172
-348 65 -30 167 -34 240 -10 69 23 171 74 177 89 3 7 27 27 54 45 39 25 55 44
79 94 35 73 55 200 45 283 -14 114 -86 278 -153 347 -71 74 -120 101 -192 109
-57 5 -71 3 -112 -19 -71 -38 -100 -28 -63 21 18 24 19 68 3 82 -8 6 -22 6
-36 1z m207 -225 c43 -9 127 -86 155 -143 43 -85 59 -152 60 -243 0 -81 -2
-91 -39 -165 -51 -100 -103 -153 -174 -176 -159 -51 -271 27 -287 200 -9 93
12 323 36 403 15 50 28 72 57 97 34 29 45 33 99 33 34 0 76 -3 93 -6z"/>
<path d="M5235 9286 c-17 -25 -20 -46 -17 -107 3 -64 122 -223 237 -318 126
-103 240 -167 355 -200 25 -7 54 -17 65 -21 11 -4 61 -20 110 -35 116 -36 356
-151 420 -201 97 -77 125 -90 63 -31 -81 78 -165 141 -239 178 -35 17 -71 37
-79 44 -8 6 -42 20 -75 29 -65 19 -123 38 -200 66 -27 10 -77 26 -110 36 -62
18 -93 33 -205 99 -83 49 -259 225 -294 294 -31 61 -36 144 -9 173 9 10 11 18
5 18 -6 0 -19 -11 -27 -24z"/>
<path d="M4130 8655 c0 -10 14 -40 31 -66 23 -37 44 -55 92 -78 93 -45 129
-52 344 -65 56 -4 81 -11 114 -32 39 -25 52 -27 153 -28 102 -1 115 -3 160
-29 45 -25 73 -29 50 -8 -16 16 -172 109 -194 116 -13 4 -19 12 -16 21 13 33
-150 47 -331 29 -167 -16 -320 32 -376 117 -18 28 -27 36 -27 23z"/>
<path d="M5445 8643 c57 -53 236 -145 356 -182 l76 -24 66 27 c43 17 84 26
121 26 64 0 75 16 19 25 -21 4 -47 10 -58 13 -11 3 -29 7 -40 9 -11 1 -43 6
-71 12 -29 5 -95 10 -147 10 -53 0 -105 4 -115 10 -11 6 -22 8 -25 5 -5 -5
-58 17 -152 63 -39 20 -46 21 -30 6z"/>
<path d="M6618 8585 c-28 -15 -31 -26 -42 -124 -4 -36 6 -165 18 -231 3 -21
19 -59 72 -175 35 -78 58 -144 64 -185 l7 -45 2 52 c1 39 -9 76 -42 160 -67
166 -95 304 -82 411 6 51 11 61 36 76 18 11 37 15 52 10 18 -5 15 0 -15 30
-20 20 -38 36 -40 36 -2 -1 -15 -7 -30 -15z"/>
<path d="M5144 8525 c-3 -14 -3 -37 2 -52 4 -16 8 -30 9 -33 11 -47 118 -156
187 -191 84 -43 156 -59 264 -59 121 0 122 -1 71 -82 -65 -102 -72 -134 -87
-371 -12 -188 -26 -252 -75 -352 -74 -149 -200 -259 -301 -264 -48 -2 -54 1
-79 31 -15 18 -24 25 -21 15 3 -10 6 -25 6 -33 0 -28 61 -56 110 -50 109 11
271 146 330 273 17 37 35 76 41 85 5 10 9 32 9 50 0 18 7 42 15 52 9 12 15 42
15 72 0 48 2 52 21 47 11 -3 23 -13 26 -22 14 -41 90 -191 117 -231 17 -25 85
-110 151 -189 149 -178 198 -249 226 -326 11 -33 25 -69 29 -80 37 -93 53
-185 51 -302 -2 -117 -15 -185 -46 -246 -31 -60 -33 -87 -6 -82 11 2 45 -3 76
-11 56 -15 58 -15 82 8 37 35 90 146 106 224 11 55 17 69 32 69 14 0 21 -13
32 -60 14 -60 12 -90 -7 -155 -12 -42 -12 -40 -1 -40 21 0 44 88 46 175 2 90
7 125 20 157 4 11 0 20 -14 27 -13 7 -27 33 -37 69 -9 31 -32 85 -51 120 -37
67 -37 92 -2 92 38 0 80 -41 114 -111 18 -38 35 -66 38 -63 15 16 -45 163 -88
216 -12 14 -25 43 -28 65 -7 38 -62 106 -114 141 -13 8 -23 21 -23 29 0 20 58
10 119 -22 44 -23 120 -93 155 -145 l17 -25 -7 30 c-17 71 -113 175 -209 227
-69 36 -85 50 -85 72 0 21 -10 20 -25 -1 -14 -19 -45 -11 -45 12 0 8 9 23 20
32 11 10 20 28 20 40 0 25 -15 31 -23 9 -3 -7 -24 -22 -47 -34 -32 -16 -48
-18 -73 -11 -40 11 -37 12 -37 -6 0 -8 -7 -15 -15 -15 -10 0 -15 10 -15 27 0
25 -1 26 -14 8 -13 -18 -16 -18 -79 13 -97 48 -161 131 -212 272 -20 55 -30
117 -26 168 1 6 8 12 17 12 14 0 14 3 3 16 -10 13 -10 17 2 25 12 7 12 10 0
18 -17 11 -5 51 14 51 8 0 17 12 21 28 28 128 88 221 178 279 32 20 47 24 90
20 98 -8 148 -29 126 -51 -5 -5 -10 -16 -10 -24 0 -10 4 -10 22 2 27 19 52 20
66 3 9 -10 6 -23 -8 -50 -24 -44 -26 -100 -5 -117 13 -11 15 -8 15 19 0 62 92
87 107 30 3 -10 10 -19 15 -19 7 0 7 -4 0 -12 -5 -7 -13 -24 -17 -36 -7 -23
-6 -23 18 -8 13 9 32 14 41 10 19 -7 21 -24 2 -24 -7 0 -26 -10 -41 -22 -39
-31 -31 -81 25 -148 55 -66 125 -86 179 -51 21 13 6 61 -19 61 -11 0 -27 12
-37 26 -16 25 -16 27 2 41 19 13 19 16 -15 114 -19 55 -38 103 -42 105 -4 3
-15 21 -25 41 -34 73 -188 213 -238 217 -5 1 -16 13 -23 29 -13 26 -32 37 -32
17 0 -5 -5 -10 -11 -10 -6 0 -9 7 -5 15 3 9 0 15 -9 15 -8 0 -15 4 -15 9 0 4
-26 16 -58 25 -47 13 -70 14 -112 6 -29 -6 -59 -15 -67 -21 -7 -6 -13 -9 -13
-6 0 10 -134 -53 -142 -66 -4 -7 -8 -8 -8 -3 0 5 -8 2 -17 -6 -10 -9 -29 -19
-43 -23 -14 -4 -32 -14 -41 -21 -23 -21 -51 -26 -172 -31 -75 -4 -112 -2 -122
7 -8 6 -19 9 -24 6 -5 -4 -37 7 -70 24 -96 49 -159 140 -144 211 7 36 -14 40
-23 4z"/>
<path d="M4805 8336 c-61 -12 -150 -44 -207 -76 -10 -6 -23 -10 -29 -10 -6 0
-41 -13 -77 -29 -81 -34 -198 -55 -283 -49 -69 4 -137 31 -181 73 -29 26 -37
23 -15 -6 18 -24 128 -96 182 -120 42 -19 61 -21 149 -16 99 5 142 17 256 70
151 71 310 61 371 -24 44 -62 96 -200 114 -303 3 -21 10 -46 15 -55 5 -9 18
-50 30 -91 12 -41 33 -97 45 -125 87 -189 108 -226 162 -291 l33 -39 32 35 32
35 -27 3 c-20 3 -37 18 -65 60 -55 82 -96 158 -121 226 -12 33 -28 71 -36 85
-16 30 -48 139 -69 231 -21 96 -45 210 -51 251 -3 23 -18 48 -44 73 -22 21
-37 44 -35 51 7 17 -23 45 -49 45 -12 0 -31 2 -42 4 -11 3 -51 -1 -90 -8z"/>
<path d="M5507 8087 c-35 -86 -47 -163 -46 -281 l1 -101 13 90 c7 50 18 104
23 120 15 48 73 157 103 195 l27 36 -48 2 -48 2 -25 -63z"/>
<path d="M4675 8078 c-51 -26 -77 -50 -130 -119 -104 -134 -151 -274 -162
-489 -7 -126 10 -322 37 -430 58 -233 80 -298 133 -395 53 -97 95 -165 203
-326 109 -164 137 -198 236 -291 128 -120 219 -196 292 -246 178 -121 438
-262 576 -312 35 -13 89 -37 119 -52 30 -15 61 -28 68 -28 8 0 35 -11 61 -24
26 -12 83 -36 126 -51 44 -15 119 -47 168 -71 48 -24 90 -44 93 -44 3 0 61
-35 128 -77 151 -96 247 -189 312 -300 26 -46 51 -83 56 -83 24 0 -94 223
-164 310 -64 78 -175 190 -189 190 -6 0 -27 14 -47 31 -20 16 -47 39 -59 50
-13 10 -31 19 -40 19 -24 0 -93 51 -85 63 3 6 1 7 -6 3 -18 -12 -79 13 -86 35
-7 21 -20 25 -30 9 -11 -18 -27 -11 -22 10 3 13 0 20 -9 20 -8 0 -14 -4 -14
-10 0 -5 -7 -10 -16 -10 -11 0 -14 6 -9 20 5 14 2 20 -9 20 -9 0 -16 -4 -16
-10 0 -19 -18 -10 -24 12 -5 22 -6 22 -19 4 -10 -13 -16 -15 -21 -8 -4 7 -4
17 -1 22 9 14 -19 12 -33 -2 -10 -10 -14 -8 -18 8 -4 15 -12 20 -28 17 -30 -6
-108 28 -101 45 3 9 -3 10 -20 6 -18 -5 -25 -2 -25 9 0 10 -7 13 -20 10 -14
-4 -20 0 -20 12 0 14 -3 15 -14 6 -10 -8 -20 -8 -40 3 -18 9 -23 16 -14 19 7
2 10 8 5 12 -4 5 -13 3 -19 -3 -17 -17 -48 -15 -48 3 0 8 -6 12 -13 9 -8 -3
-20 2 -27 11 -7 8 -18 15 -24 15 -19 0 -220 104 -287 148 -109 72 -143 96
-160 113 -10 10 -22 19 -26 19 -5 0 -30 21 -56 45 -26 25 -51 45 -56 45 -16 0
-188 186 -231 250 -25 36 -68 110 -97 165 -29 55 -66 125 -82 155 -44 84 -96
230 -135 383 -42 161 -46 216 -16 224 11 3 20 9 20 14 0 5 -7 6 -16 2 -12 -4
-15 0 -12 18 2 14 9 23 17 21 11 -2 12 7 8 43 -4 26 -3 44 2 41 14 -9 28 16
41 76 12 54 33 79 51 61 4 -4 9 -33 12 -63 2 -30 6 -64 9 -75 3 -11 9 -42 12
-70 4 -27 18 -72 31 -100 12 -27 33 -75 46 -105 12 -30 33 -71 46 -90 13 -19
23 -38 23 -42 0 -10 102 -162 143 -214 99 -126 153 -187 224 -254 124 -117
182 -158 368 -253 192 -100 223 -112 560 -218 72 -22 139 -44 150 -48 11 -5
47 -18 80 -30 126 -47 261 -105 290 -125 17 -12 43 -28 59 -36 42 -21 132
-106 167 -157 17 -24 48 -78 69 -121 22 -42 40 -71 40 -64 0 20 -75 166 -119
231 -22 31 -58 74 -82 95 -24 21 -53 46 -64 55 -11 10 -36 28 -55 42 -19 13
-37 26 -40 29 -29 29 -170 108 -320 179 -19 9 -36 19 -38 24 -2 4 -11 7 -19 7
-10 0 -13 6 -9 16 4 12 1 14 -13 9 -14 -4 -21 0 -26 15 -7 22 -16 25 -32 9
-11 -11 -63 -2 -63 12 0 5 -11 9 -24 9 -13 0 -29 7 -36 15 -7 8 -20 15 -30 15
-10 0 -25 11 -34 25 -17 26 -42 35 -33 11 6 -14 -15 -15 -46 -2 -12 6 -16 15
-12 27 8 23 -8 25 -25 4 -17 -21 -27 -19 -62 11 -17 14 -44 28 -59 31 -16 3
-29 10 -29 15 0 6 -6 8 -14 5 -14 -6 -40 15 -31 25 3 2 -7 5 -23 5 -29 0 -135
60 -220 126 -169 129 -428 442 -408 492 13 36 55 15 148 -74 51 -49 95 -88 97
-85 2 2 -38 46 -89 98 -60 61 -104 97 -122 101 -33 8 -60 46 -119 171 -47 99
-44 123 16 116 29 -3 42 -12 62 -43 14 -22 28 -37 31 -35 6 6 -44 94 -69 121
-12 13 -20 41 -22 80 -3 33 -8 74 -12 90 -6 27 -2 34 39 67 31 27 50 36 63 31
40 -15 -10 27 -56 48 -97 43 -152 120 -159 225 -4 69 -3 73 22 89 15 10 24 20
21 23 -2 3 0 11 7 19 6 7 8 16 5 20 -12 11 -72 -22 -112 -62 -47 -47 -142
-227 -175 -333 -26 -85 -44 -109 -67 -91 -21 18 -13 75 10 71 19 -3 24 24 5
31 -10 4 -10 8 1 15 8 6 11 17 8 26 -4 9 -1 15 6 13 6 -1 13 9 15 23 1 14 7
34 11 45 5 11 19 47 31 80 28 75 83 161 124 197 37 33 18 36 -39 6z m142 -520
c39 -31 61 -172 29 -184 -18 -7 -66 24 -66 42 0 8 -4 14 -10 14 -19 0 -40 126
-24 143 8 8 54 -2 71 -15z"/>
<path d="M4363 7967 c-45 -51 -97 -135 -158 -257 -36 -71 -65 -131 -65 -134 0
-3 -11 -29 -24 -58 -45 -102 -89 -245 -119 -387 -30 -145 -32 -497 -3 -671 45
-281 131 -480 296 -690 214 -272 365 -427 533 -547 95 -67 397 -268 443 -294
23 -13 86 -50 140 -82 264 -156 300 -175 559 -297 69 -32 302 -126 359 -144
27 -9 14 -17 -35 -21 -61 -5 -210 -25 -231 -31 -9 -3 -19 -15 -22 -28 -8 -33
-30 -38 -59 -15 -14 10 -31 19 -38 19 -6 0 -27 11 -45 25 -18 14 -37 25 -43
25 -11 0 -282 130 -316 152 -11 7 -51 33 -90 57 -38 25 -74 50 -80 56 -5 6
-26 23 -45 37 -62 46 -169 157 -207 215 -36 54 -144 173 -157 173 -3 0 -6 -7
-6 -15 0 -50 207 -288 365 -419 114 -96 220 -163 375 -239 185 -91 313 -161
317 -172 2 -6 -51 -9 -140 -7 l-144 4 2 -31 c2 -27 -1 -31 -19 -25 -12 3 -33
14 -48 25 -15 10 -55 33 -90 50 -59 30 -146 87 -177 117 -7 7 -32 22 -55 34
-84 42 -270 213 -340 313 -38 53 -100 171 -121 230 -4 11 -9 15 -12 9 -13 -36
104 -247 188 -341 67 -74 150 -153 189 -178 19 -13 80 -55 135 -94 55 -39 145
-98 200 -131 154 -94 149 -89 150 -156 0 -76 -13 -78 -102 -21 -37 24 -121 79
-186 121 -66 42 -123 76 -129 74 -11 -4 308 -220 380 -257 17 -9 21 -18 17
-32 -6 -17 -2 -19 23 -17 16 1 42 -6 58 -16 51 -33 114 -87 114 -98 0 -6 -3
-9 -6 -5 -4 3 -22 0 -41 -8 -44 -18 -78 -6 -146 54 -51 43 -96 57 -78 23 6
-11 10 -27 9 -38 0 -10 4 -48 10 -84 8 -58 13 -68 52 -103 39 -34 48 -38 94
-36 28 1 63 8 78 16 36 18 35 18 58 -19 28 -47 26 -62 -7 -54 -69 16 -88 14
-123 -14 -19 -15 -46 -33 -60 -40 -14 -7 -27 -16 -30 -19 -13 -16 -60 -32 -76
-27 -11 3 -48 33 -84 66 -36 32 -68 59 -72 60 -4 0 -15 11 -23 24 -15 22 -14
27 3 57 21 38 54 59 95 59 l27 0 -3 107 c-2 59 -8 108 -13 109 -5 1 -40 4 -79
7 l-70 4 2 -138 c2 -101 -1 -140 -10 -148 -10 -7 -35 5 -98 50 -46 33 -101 69
-122 80 -20 11 -42 28 -49 38 -6 11 -17 17 -23 14 -7 -2 -34 9 -61 24 -68 39
-88 47 -174 73 -41 12 -88 25 -105 30 -16 5 -73 12 -125 15 -88 5 -93 4 -65
-9 17 -8 55 -18 85 -21 88 -10 230 -54 237 -72 3 -7 15 -13 28 -13 41 0 121
-42 312 -163 46 -29 61 -46 41 -48 -7 -1 -20 -2 -28 -3 -8 0 -14 -7 -13 -13 2
-7 -4 -41 -12 -75 -8 -35 -15 -80 -15 -100 0 -20 -4 -40 -10 -43 -5 -3 -29 13
-52 35 -24 23 -77 66 -118 95 -41 29 -85 63 -97 74 -12 12 -30 21 -41 21 -10
0 -22 4 -28 9 -5 6 -22 12 -39 15 -16 3 -42 8 -56 11 -14 3 -39 0 -55 -6 l-29
-12 40 -8 c85 -16 119 -29 198 -75 66 -39 120 -86 275 -242 179 -180 217 -225
205 -245 -2 -4 -33 -7 -69 -7 l-64 0 -51 53 c-65 67 -110 137 -138 212 -28 75
-35 88 -48 92 -5 2 3 -36 19 -84 30 -89 70 -154 154 -243 23 -25 50 -67 60
-95 25 -68 56 -125 54 -100 -6 59 0 85 19 85 17 0 75 -39 59 -40 -11 0 29 -87
58 -125 21 -28 34 -35 77 -40 30 -4 64 -2 80 4 23 9 42 7 95 -9 37 -12 85 -29
107 -40 43 -20 102 -42 178 -66 26 -8 62 -23 80 -34 48 -28 216 -59 350 -63
65 -2 120 -7 123 -10 12 -11 -96 -57 -148 -63 -43 -5 -56 -3 -67 10 -8 9 -29
16 -50 16 -20 0 -52 4 -71 10 -29 8 -98 18 -168 24 -11 1 -18 -7 -20 -26 -2
-14 -9 -31 -15 -36 -13 -11 -116 1 -152 17 -11 5 -42 19 -68 30 -52 24 -67 48
-67 111 0 50 -18 60 -110 60 -59 0 -79 5 -118 27 -64 37 -113 73 -135 101 -10
12 -24 22 -31 22 -6 0 -28 9 -49 19 -20 10 -37 15 -37 10 0 -5 4 -9 9 -9 11 0
151 -111 171 -135 13 -17 13 -18 0 -10 -22 14 44 -67 103 -126 29 -28 87 -75
130 -106 42 -30 77 -57 77 -59 0 -3 -9 -14 -20 -26 -16 -17 -22 -19 -34 -9 -8
7 -12 20 -9 29 5 14 3 14 -9 -2 -14 -17 -17 -17 -74 13 -72 38 -90 49 -131 81
-17 14 -55 41 -83 60 -127 88 -305 228 -303 238 2 7 -2 12 -7 12 -15 0 -65 37
-118 85 -24 22 -53 46 -65 55 -13 8 -31 23 -42 32 -57 49 -114 93 -155 121
-25 17 -51 37 -58 44 -15 14 -175 108 -237 138 -22 11 -40 26 -40 33 0 18 -27
33 -49 26 -10 -4 -22 0 -27 7 -13 22 -294 18 -334 -4 -30 -17 -30 -17 51 -17
111 0 224 -34 401 -120 232 -112 312 -171 523 -385 215 -217 304 -292 470
-395 99 -61 254 -136 328 -159 141 -43 209 -44 630 -15 61 4 62 -13 1 -22 -21
-4 -39 -10 -39 -15 0 -16 54 -23 175 -23 140 0 254 28 390 94 74 36 181 107
173 115 -9 7 -127 12 -139 4 -7 -4 -19 -3 -26 3 -9 7 -35 -1 -95 -30 -102 -50
-132 -51 -136 -4 -6 56 7 62 134 62 66 0 114 -4 114 -10 0 -5 19 -3 41 5 23 8
56 15 73 15 61 0 219 58 316 116 184 110 298 252 375 469 30 87 37 135 20 152
-13 12 -21 50 -16 76 1 5 -3 23 -8 40 -6 18 -18 68 -27 112 -26 124 -125 341
-186 409 -18 20 -24 52 -10 59 15 9 70 -23 100 -58 18 -20 32 -30 32 -24 0 18
-70 120 -87 126 -9 3 -26 29 -38 57 -34 75 -71 109 -176 161 -52 26 -101 53
-109 60 -8 7 -26 16 -40 20 -34 10 -60 34 -60 55 0 25 16 29 86 19 80 -11 150
-39 236 -95 39 -25 73 -43 75 -40 6 6 -149 120 -215 158 -26 15 -55 27 -64 28
-10 0 -22 8 -27 18 -10 18 -132 72 -163 72 -9 0 -20 5 -23 11 -4 6 -14 8 -22
5 -9 -4 -21 1 -28 11 -13 17 -14 17 -33 0 -14 -13 -22 -15 -27 -7 -4 6 -4 14
-1 17 3 4 -13 15 -36 25 -38 17 -44 17 -54 4 -14 -20 -28 -21 -21 -1 7 17 -43
45 -80 45 -13 0 -33 5 -44 11 -15 7 -24 7 -35 -2 -11 -9 -14 -8 -14 4 0 18
-37 30 -43 13 -3 -8 -11 -7 -30 3 -14 8 -24 17 -22 21 3 4 -2 13 -10 20 -10 9
-15 9 -15 1 0 -6 -9 -11 -20 -11 -12 0 -20 7 -20 16 0 13 -3 14 -15 4 -12 -10
-16 -9 -21 5 -5 11 -14 15 -30 11 -16 -4 -26 -1 -33 13 -7 13 -18 17 -34 14
-14 -3 -28 0 -31 6 -4 6 -14 11 -23 11 -8 0 -29 6 -46 14 -18 8 -41 16 -52 19
-11 3 -65 22 -120 42 -55 20 -133 47 -173 61 -112 38 -321 149 -424 226 -74
54 -170 153 -193 199 -17 31 -38 40 -28 12 49 -141 417 -406 703 -507 41 -14
84 -30 95 -35 61 -27 93 -40 115 -46 24 -7 120 -48 248 -106 35 -16 65 -29 67
-29 11 0 308 -143 360 -172 235 -136 535 -397 640 -558 53 -81 90 -176 101
-259 4 -28 10 -51 14 -51 8 0 32 -217 26 -245 -2 -11 -7 -40 -12 -65 -19 -105
-36 -164 -67 -230 -31 -64 -80 -136 -121 -175 -28 -27 -79 -60 -88 -57 -5 1
-8 -3 -8 -8 0 -5 -3 -9 -7 -8 -8 1 -47 -13 -88 -32 -22 -10 -198 -50 -220 -50
-30 0 -1 28 76 73 44 26 91 50 105 53 13 3 27 10 30 15 3 5 9 9 15 9 18 0 9
-22 -21 -52 l-31 -30 26 6 c14 4 47 20 74 36 26 17 51 30 55 30 3 0 19 12 36
26 21 19 38 53 61 123 17 53 32 105 33 116 1 11 7 30 15 43 7 13 10 29 8 37
-3 7 -1 17 4 22 7 7 6 19 -2 36 -10 23 -9 30 4 45 11 12 13 22 7 28 -5 5 -14
57 -20 114 -20 204 -62 342 -148 480 -48 78 -127 170 -146 170 -20 1 -201 145
-202 160 0 8 -4 24 -8 35 -4 11 -10 26 -12 33 -6 22 -24 13 -24 -13 0 -32 -19
-32 -90 1 -56 27 -156 64 -172 64 -4 0 -8 -7 -8 -16 0 -10 8 -15 23 -13 41 5
96 -21 128 -62 23 -30 38 -39 60 -39 41 0 45 -20 21 -88 -12 -31 -20 -57 -18
-59 1 -2 22 16 44 39 l42 42 0 -107 0 -107 -57 0 -58 0 25 -20 c40 -30 18 -33
-43 -4 -57 25 -80 44 -55 44 18 0 58 73 58 106 0 29 -45 107 -82 141 -49 46
-163 62 -233 33 l-30 -12 45 -17 c83 -30 85 -34 33 -91 -23 -27 -39 -37 -43
-30 -5 9 -13 8 -29 -2 -18 -11 -23 -11 -31 2 -5 8 -5 19 -1 23 15 15 0 45 -30
57 -16 7 -29 19 -29 26 0 8 -9 19 -20 26 -17 11 -20 24 -20 95 0 77 1 83 21
83 11 0 29 -5 41 -11 11 -6 22 -8 26 -5 3 3 -28 21 -69 38 -57 25 -355 172
-459 227 -25 13 -81 41 -145 74 -63 31 -176 97 -185 106 -3 3 -25 17 -50 30
-25 13 -54 32 -66 42 -11 11 -24 19 -28 19 -4 0 -33 17 -64 37 -31 21 -68 43
-82 51 -14 7 -42 26 -62 43 -20 16 -40 29 -43 29 -4 0 -25 15 -48 34 -23 18
-53 39 -66 46 -77 40 -357 297 -505 464 -61 70 -194 244 -249 328 -72 110
-171 325 -201 438 -8 30 -22 80 -30 110 -38 137 -62 406 -44 495 5 22 10 56
12 75 7 79 19 156 26 165 4 6 10 30 13 55 3 25 10 63 16 85 7 22 13 47 14 55
1 8 8 25 15 38 7 12 10 22 6 22 -3 0 1 10 9 23 8 13 22 46 30 73 14 48 31 90
83 199 13 28 46 85 74 129 51 78 61 106 23 63z m1746 -3791 c26 -14 87 -53
135 -88 48 -35 97 -68 110 -75 12 -7 31 -22 41 -33 18 -20 18 -21 -9 -49 -15
-16 -43 -37 -62 -47 l-35 -19 -62 68 c-37 40 -70 68 -82 68 -11 0 -31 6 -45
14 -34 19 -37 19 -44 -10 -10 -39 -41 -32 -66 16 -25 50 -21 65 19 74 29 6 31
10 31 49 0 38 6 56 17 56 2 0 25 -11 52 -24z m-81 -287 c28 -19 54 -39 56 -46
6 -14 -52 -33 -101 -33 -39 0 -192 98 -172 111 7 4 47 6 89 4 67 -2 83 -7 128
-36z m1229 14 c5 -10 6 -72 3 -138 l-5 -120 -83 -1 c-76 -1 -86 1 -115 25 -60
50 -74 66 -82 91 -4 14 -21 41 -36 60 -28 34 -41 66 -17 42 18 -18 38 -14 38
7 0 50 3 51 151 51 122 0 139 -2 146 -17z m-1384 -156 c14 -8 46 -36 71 -64
54 -60 96 -81 131 -65 18 8 26 8 35 -3 13 -16 -5 -50 -40 -75 -13 -9 -20 -26
-20 -47 0 -58 -37 -34 -65 42 -10 28 -47 87 -82 133 -76 100 -77 103 -30 79z
m716 3 c46 -5 90 -15 98 -22 29 -23 134 -180 160 -236 14 -32 30 -67 35 -79
14 -29 3 -53 -24 -53 -50 0 -67 -12 -82 -54 -18 -50 -27 -221 -12 -236 5 -5
41 -10 78 -10 65 0 68 -1 68 -24 0 -29 -47 -173 -67 -202 -17 -26 -63 -47
-107 -49 -17 0 -44 -8 -61 -17 -34 -18 -152 -27 -174 -14 -8 5 -34 9 -57 9
-24 0 -45 6 -48 12 -2 7 -22 15 -43 19 -45 7 -92 39 -74 50 6 4 28 9 49 12 20
2 52 6 71 10 37 6 166 -30 189 -53 21 -21 51 -16 56 10 10 45 16 94 22 157 25
291 47 426 74 455 24 25 25 43 5 72 -21 31 -132 113 -169 126 -17 6 -50 25
-73 43 -23 18 -53 36 -65 39 -31 10 -49 25 -42 36 7 12 88 11 193 -1z m789
-129 c15 -8 17 -27 17 -133 l0 -123 -62 -3 -63 -3 0 129 c0 71 3 132 7 135 9
10 82 8 101 -2z m-1877 -128 c71 -63 87 -83 94 -115 4 -15 24 -47 47 -73 46
-53 45 -75 -5 -75 -47 0 -111 47 -123 91 -8 28 -15 35 -41 37 -34 3 -37 9 -48
83 -6 49 1 99 15 99 4 0 32 -21 61 -47z m567 -73 c19 -18 22 -32 22 -95 0 -41
-7 -100 -16 -132 -8 -32 -17 -78 -19 -101 -2 -24 -6 -47 -10 -50 -6 -6 -185
176 -185 189 0 3 10 18 21 33 l22 27 29 -28 c34 -32 57 -25 72 23 4 16 12 36
17 45 4 9 5 20 2 23 -11 11 -12 60 -1 73 14 17 20 16 46 -7z m1023 -146 c38
-72 60 -72 28 0 -30 69 -23 78 58 74 l68 -3 3 -137 3 -138 -100 0 c-132 0
-148 8 -155 74 -9 92 -15 194 -11 198 3 2 20 2 39 0 30 -3 37 -11 67 -68z
m249 -228 c0 -28 -31 -86 -53 -99 -12 -8 -42 -20 -67 -26 -25 -7 -55 -17 -67
-22 -12 -4 -49 -15 -82 -24 -33 -8 -67 -18 -76 -21 -20 -8 -20 27 -1 65 12 21
33 35 98 59 46 17 100 33 120 36 20 2 46 14 57 25 24 24 71 28 71 7z m-1263
-146 c7 -8 23 -28 34 -43 l21 -29 -31 5 c-18 3 -53 16 -79 29 -36 17 -46 28
-44 44 2 17 -3 20 -33 21 -19 1 -38 -3 -41 -9 -3 -5 -12 -1 -19 9 -17 23 -2
53 25 53 11 0 20 5 20 10 0 6 -5 10 -12 10 -6 0 -3 6 8 14 17 14 24 10 78 -42
33 -31 66 -64 73 -72z"/>
<path d="M6554 7687 c13 -17 28 -45 32 -62 4 -16 15 -42 25 -57 11 -14 19 -29
19 -33 0 -4 6 -21 14 -38 18 -41 30 -88 27 -109 -1 -9 5 -30 14 -45 15 -27 16
-22 10 85 -3 61 -11 126 -17 142 -10 30 -7 72 8 119 l7 25 -31 -23 -32 -22
-50 25 -51 25 25 -32z"/>
<path d="M4232 7546 c-23 -59 -47 -191 -61 -336 -9 -94 -3 -416 9 -450 5 -14
11 -56 15 -95 3 -38 15 -96 26 -128 11 -33 24 -82 30 -110 32 -150 244 -467
430 -642 151 -140 282 -255 288 -249 3 3 -7 15 -22 26 -42 30 -275 263 -333
333 -54 65 -114 149 -114 161 0 4 -6 15 -14 23 -24 27 -124 228 -152 304 -123
341 -158 790 -88 1114 21 98 14 123 -14 49z"/>
<path d="M5700 7448 c0 -7 5 -31 11 -53 5 -22 11 -51 14 -65 2 -14 20 -70 39
-125 19 -55 44 -129 57 -165 12 -36 26 -73 31 -84 6 -10 10 -62 10 -114 -1
-84 -4 -102 -27 -146 -32 -60 -66 -88 -116 -96 -35 -5 -36 -6 -24 -24 22 -29
96 -33 138 -7 19 12 40 28 47 36 13 16 28 70 35 128 2 21 8 45 13 54 5 9 6 27
1 42 -33 102 -58 251 -44 251 34 0 175 -120 175 -149 0 -6 10 -16 22 -22 l22
-12 -20 31 c-38 60 -138 165 -170 178 -18 8 -44 28 -58 46 -36 48 -123 227
-131 271 -7 34 -25 53 -25 25z"/>
<path d="M5482 7194 l-42 -45 20 -29 c19 -27 70 -64 138 -102 17 -9 38 -28 47
-42 16 -24 16 -26 -3 -46 -24 -26 -62 -19 -62 11 0 22 -17 26 -22 4 -5 -25
-100 53 -123 102 -11 23 -24 42 -29 43 -14 0 3 -47 34 -99 17 -26 30 -52 30
-57 1 -5 14 -25 30 -44 17 -19 30 -37 30 -40 0 -11 -67 -11 -95 0 -14 5 -54
36 -87 68 -36 33 -56 47 -48 33 24 -46 91 -109 158 -150 69 -41 116 -56 215
-66 54 -6 58 -8 64 -36 7 -36 16 -36 42 -2 27 34 36 70 22 87 -6 7 -15 44 -20
82 l-8 69 -113 107 c-106 100 -113 110 -117 152 -3 26 -8 46 -12 46 -3 -1 -25
-21 -49 -46z"/>
<path d="M4640 7076 c-1 -57 93 -287 163 -399 34 -54 71 -114 82 -133 55 -94
109 -160 220 -270 119 -117 181 -167 295 -237 30 -19 93 -58 139 -86 46 -29
98 -58 115 -65 17 -7 56 -25 86 -39 30 -14 82 -35 115 -46 33 -12 69 -25 80
-30 36 -16 129 -50 185 -67 30 -9 70 -23 89 -31 18 -7 53 -16 77 -20 25 -3 47
-10 50 -14 7 -11 34 -12 34 -1 0 5 -19 14 -42 21 -64 19 -266 91 -318 113 -86
38 -105 46 -170 74 -36 15 -72 33 -80 39 -23 18 -99 55 -112 55 -13 0 -118 63
-278 168 -90 59 -147 108 -260 221 -225 225 -354 427 -446 696 -13 38 -24 62
-24 51z"/>
<path d="M5985 6805 c9 -24 9 -26 -5 -89 -9 -46 -8 -53 15 -88 20 -30 25 -50
25 -102 0 -36 -4 -76 -10 -90 -15 -42 7 -30 27 14 10 22 24 40 31 40 15 0 15
-6 -2 -63 -12 -39 -12 -45 1 -40 39 15 58 114 30 156 -9 15 -17 33 -17 42 0 9
-9 34 -20 56 -11 21 -25 63 -30 92 -6 30 -19 60 -32 72 -21 20 -21 20 -13 0z"/>
<path d="M4415 6698 c21 -102 113 -307 240 -533 27 -47 110 -178 127 -200 5
-5 22 -29 38 -52 17 -24 34 -43 39 -43 23 0 19 20 -11 51 -100 107 -359 573
-408 737 -23 74 -37 97 -25 40z"/>
<path d="M5601 6543 c30 -79 93 -131 207 -173 78 -29 97 -22 136 50 24 44 26
55 17 74 -9 16 -9 29 -2 49 13 33 -1 35 -22 3 -38 -57 -192 -95 -255 -62 -18
9 -42 32 -55 51 -26 41 -41 46 -26 8z"/>
<path d="M3893 6128 c9 -119 51 -269 102 -368 20 -39 181 -207 190 -198 4 4
-2 19 -14 34 -11 15 -21 34 -21 42 0 8 -29 45 -64 82 -65 67 -122 170 -145
257 -24 96 -31 136 -31 173 0 22 -5 40 -11 40 -7 0 -9 -21 -6 -62z"/>
<path d="M5550 6125 c0 -28 2 -29 230 -129 221 -96 220 -96 220 -57 0 21 -21
32 -117 61 -40 13 -73 27 -73 32 0 6 -7 7 -16 4 -9 -4 -22 -2 -28 2 -6 5 -45
22 -85 37 -41 16 -85 39 -97 52 -27 29 -34 29 -34 -2z"/>
<path d="M4931 5888 c-35 -38 -77 -76 -92 -85 -40 -24 -42 -39 -10 -75 l29
-32 38 28 c59 44 134 118 150 149 13 25 13 27 -4 27 -23 0 -42 19 -36 35 14
34 -17 15 -75 -47z"/>
<path d="M4274 5636 c42 -80 76 -154 76 -165 0 -11 4 -22 9 -25 5 -4 21 -45
36 -94 15 -48 29 -94 32 -102 17 -51 42 -240 43 -322 0 -119 -29 -251 -71
-327 -17 -29 -29 -55 -26 -57 2 -2 17 13 33 34 102 130 126 197 127 347 0 61
-2 128 -6 150 -3 22 -8 60 -12 85 -19 134 -47 215 -104 298 -99 148 -141 213
-177 282 -8 16 -20 32 -25 36 -6 3 23 -59 65 -140z"/>
<path d="M5280 5674 c-44 -103 -96 -197 -122 -223 -16 -14 -28 -31 -28 -38 0
-6 -8 -18 -17 -25 -10 -7 -33 -31 -52 -52 l-33 -40 33 -27 c19 -16 39 -29 46
-29 23 0 91 116 183 313 34 72 43 138 23 158 -10 10 -17 1 -33 -37z"/>
<path d="M3887 5487 c7 -86 19 -124 67 -217 54 -102 203 -251 270 -270 87 -24
75 13 -18 59 -36 18 -86 51 -110 73 -86 75 -166 214 -195 338 -6 25 -12 54
-15 65 -3 11 -2 -11 1 -48z"/>
<path d="M5351 5497 c-19 -40 -23 -58 -18 -104 3 -30 13 -63 21 -72 9 -10 16
-21 16 -25 0 -11 51 -54 85 -73 68 -37 150 -46 131 -14 -3 5 4 11 17 14 12 3
50 12 84 21 56 14 69 14 120 1 64 -17 102 -40 119 -74 16 -30 0 -101 -28 -124
-29 -25 -16 -32 19 -11 44 29 61 52 68 95 6 32 2 47 -19 83 -30 52 -93 120
-119 129 -13 5 -16 13 -12 27 4 11 2 20 -4 20 -6 0 -11 -4 -11 -10 0 -5 -4
-10 -10 -10 -5 0 -9 10 -7 22 1 14 -4 23 -15 26 -11 2 -18 -3 -18 -12 0 -9 -7
-16 -16 -16 -13 0 -14 3 -5 14 10 12 6 17 -21 30 -35 16 -95 19 -104 4 -11
-17 -52 -7 -78 18 -30 30 -34 18 -10 -28 16 -31 16 -32 -12 -55 -16 -13 -35
-23 -42 -23 -7 0 -32 20 -57 44 -39 40 -44 50 -47 98 l-3 53 -24 -48z"/>
<path d="M6310 5530 c-13 -8 32 -37 90 -60 19 -7 50 -22 67 -32 19 -11 41 -17
52 -13 65 20 315 -7 384 -42 15 -7 27 -10 27 -6 0 12 -53 63 -66 63 -7 0 -19
6 -26 13 -19 18 -66 37 -93 37 -13 0 -26 4 -30 10 -3 5 -18 9 -33 9 -15 0 -56
6 -92 12 -74 13 -264 19 -280 9z"/>
<path d="M1 2758 l-1 -2758 2758 1 c1516 1 2701 5 2632 10 -1393 87 -2716 685
-3705 1674 -989 989 -1587 2312 -1674 3705 -5 69 -9 -1116 -10 -2632z"/>
<path d="M11487 5378 c-43 -863 -342 -1816 -818 -2604 -969 -1606 -2684 -2645
-4559 -2763 -69 -5 1116 -9 2633 -10 l2757 -1 0 2755 c0 1515 -2 2755 -3 2755
-2 0 -7 -60 -10 -132z"/>
<path d="M4260 5476 c0 -10 6 -44 14 -75 8 -31 14 -63 15 -71 0 -8 7 -58 16
-110 16 -103 18 -329 3 -412 -11 -59 -5 -71 15 -31 49 95 35 412 -28 638 -17
62 -35 93 -35 61z"/>
<path d="M3829 5234 c-123 -175 -151 -296 -103 -439 24 -70 50 -106 108 -150
94 -69 211 -104 371 -107 103 -3 107 -2 125 22 44 57 47 56 -267 64 -33 0 -43
5 -47 21 -4 15 -8 17 -18 7 -17 -17 -28 -15 -29 6 0 10 -3 12 -6 5 -7 -19 -33
-15 -74 10 -66 41 -89 65 -110 113 -22 50 -28 137 -10 158 15 18 43 105 37
115 -3 5 1 14 9 21 8 7 15 17 15 22 0 5 9 21 20 35 11 14 20 34 20 44 0 11 4
19 8 19 14 0 34 52 24 59 -6 3 -12 17 -13 31 -4 22 -11 15 -60 -56z"/>
<path d="M4795 5118 c-27 -11 -64 -27 -82 -34 -17 -8 -45 -17 -62 -20 -50 -10
-76 -59 -46 -84 21 -18 136 11 237 59 81 38 97 58 51 63 -16 2 -28 9 -28 17 0
22 -16 22 -70 -1z"/>
<path d="M4800 4768 c-36 -22 -117 -57 -180 -78 -78 -27 -120 -46 -132 -62 -9
-13 -27 -35 -38 -50 -21 -27 -21 -28 -3 -28 41 0 184 55 328 127 99 49 127 69
109 81 -7 4 -14 17 -15 28 -4 20 -7 20 -69 -18z"/>
<path d="M3827 4584 c-5 -6 8 -67 23 -99 5 -11 12 -31 16 -45 38 -137 275
-279 464 -280 58 0 204 29 278 55 90 32 154 72 302 189 128 102 160 136 126
136 -8 0 -16 11 -18 25 l-3 26 -50 -41 c-61 -50 -70 -57 -120 -95 -48 -36
-144 -95 -155 -95 -5 0 -15 -6 -22 -12 -23 -21 -52 -35 -88 -43 -19 -4 -39
-10 -45 -14 -31 -19 -85 -29 -167 -30 -51 -1 -119 -3 -150 -4 -32 -2 -58 1
-58 4 0 4 -8 5 -19 2 -44 -11 -173 81 -220 158 -27 42 -47 101 -43 124 1 12
-43 46 -51 39z"/>
<path d="M7892 1963 c-34 -50 -119 -206 -176 -325 -31 -64 -63 -122 -71 -128
-20 -17 -34 -4 -91 81 -60 91 -116 136 -173 141 -84 6 -77 -24 44 -187 17 -22
47 -78 69 -123 l38 -83 -18 -42 c-17 -37 -123 -201 -263 -407 -59 -85 -91
-164 -91 -220 0 -52 16 -90 37 -90 25 0 220 199 228 233 10 37 1 43 -29 23
-16 -10 -27 -12 -31 -5 -6 8 21 58 123 229 12 19 35 59 53 88 17 28 34 52 38
52 9 0 65 -166 82 -242 9 -45 9 -69 -1 -116 -14 -70 -10 -89 30 -127 l30 -29
44 47 c30 31 50 63 61 98 19 65 19 79 -1 148 -36 130 -57 192 -101 298 l-45
112 26 48 c81 148 201 395 212 438 25 94 13 140 -24 88z"/>
<path d="M3834 1882 c-74 -54 -74 -54 -25 -146 l42 -82 -16 -85 c-8 -46 -20
-122 -25 -169 -5 -47 -15 -119 -21 -160 -6 -41 -14 -109 -18 -150 -5 -61 -10
-76 -26 -85 -48 -24 -48 -26 -17 -59 40 -42 42 -54 26 -122 -21 -87 -5 -166
36 -179 25 -8 53 8 80 45 19 27 20 31 5 59 -9 18 -15 56 -15 93 0 86 7 108 35
108 30 0 252 46 295 61 138 49 183 113 183 259 1 50 -6 107 -16 140 -29 96
-130 244 -240 349 -47 46 -209 151 -232 151 -7 0 -30 -13 -51 -28z m208 -245
c106 -106 153 -185 182 -301 39 -155 -10 -223 -204 -281 -123 -37 -123 -37
-118 38 7 100 27 203 68 342 l38 130 -23 45 c-13 25 -35 60 -49 79 -14 19 -26
39 -26 44 0 18 68 -31 132 -96z"/>
<path d="M7132 1690 c-71 -47 -86 -66 -103 -135 -6 -27 -20 -75 -29 -105 -10
-30 -21 -85 -25 -122 -5 -54 -3 -71 11 -93 17 -26 17 -34 -1 -183 -22 -186
-26 -456 -7 -489 18 -33 43 -28 86 16 37 38 37 39 26 80 -22 83 13 462 66 697
13 61 33 165 44 230 25 153 20 161 -68 104z"/>
<path d="M6808 1663 c-14 -16 -33 -43 -42 -61 -30 -58 -60 -212 -61 -307 -2
-135 -22 -327 -46 -440 -12 -55 -24 -118 -28 -140 -10 -57 -19 -69 -38 -54
-20 18 -83 145 -126 259 -20 52 -57 149 -83 215 -65 170 -66 172 -48 214 9 20
24 63 35 96 16 51 16 62 4 74 -12 12 -18 9 -44 -20 -17 -18 -31 -37 -31 -41 0
-5 -17 -6 -37 -2 -82 13 -116 -26 -114 -128 1 -52 -26 -240 -79 -548 -10 -63
-22 -135 -25 -160 -4 -25 -15 -87 -26 -137 -20 -96 -25 -163 -11 -163 4 0 19
10 33 23 19 15 33 45 48 102 12 44 28 103 37 130 8 28 28 106 44 175 35 143
73 276 83 286 7 7 147 -280 147 -300 0 -32 130 -253 155 -262 19 -8 103 35
126 65 25 32 43 93 73 258 36 194 102 893 84 893 -2 0 -16 -12 -30 -27z"/>
<path d="M4601 1634 c-12 -15 -22 -41 -22 -58 -1 -17 -3 -47 -4 -66 -1 -19 -7
-64 -13 -100 -7 -36 -12 -87 -12 -115 0 -73 -26 -182 -50 -212 -24 -31 -25
-58 -4 -109 12 -26 20 -88 25 -190 10 -184 16 -204 63 -204 27 0 41 8 69 39
38 42 72 100 64 108 -3 2 -17 -3 -32 -13 -26 -17 -28 -17 -41 1 -15 20 -20
211 -6 231 12 17 78 44 110 44 16 0 45 6 63 13 40 15 49 15 108 -2 32 -9 51
-10 67 -2 14 6 26 7 29 1 3 -5 12 -7 20 -3 22 8 20 -23 -15 -220 -25 -148 -34
-217 -42 -322 -5 -60 2 -85 23 -85 29 0 52 58 99 253 22 92 46 183 55 203 8
20 24 85 35 143 11 58 27 135 35 171 9 36 20 112 25 170 5 58 11 134 15 170 8
88 -1 99 -55 69 -24 -13 -56 -43 -72 -65 -26 -36 -28 -44 -17 -62 11 -17 10
-44 -5 -154 -11 -73 -25 -148 -32 -165 -12 -31 -16 -33 -59 -33 -26 0 -54 4
-64 10 -24 13 -158 34 -196 32 -16 -2 -50 0 -74 4 l-43 6 5 41 c13 100 58 342
71 388 24 79 4 109 -69 109 -24 0 -39 -7 -54 -26z"/>
<path d="M5783 1540 c-74 -8 -92 -16 -203 -91 -48 -32 -101 -86 -121 -123 -15
-27 -80 -320 -75 -339 3 -12 -1 -58 -9 -102 -8 -45 -16 -124 -19 -175 -3 -52
-9 -118 -12 -146 -7 -64 1 -94 27 -94 14 0 19 -7 19 -30 0 -26 5 -30 42 -40
22 -7 55 -9 72 -7 17 3 40 2 51 -2 38 -15 212 34 347 99 48 23 91 46 94 51 9
14 -17 71 -30 67 -6 -2 -49 -15 -96 -30 -93 -29 -255 -62 -268 -54 -4 2 -37 8
-72 11 -36 4 -68 9 -73 12 -5 3 -6 21 -2 42 3 20 8 60 10 89 11 151 32 187
125 210 61 15 271 24 289 13 41 -26 78 67 46 115 -14 22 -22 24 -98 24 -100 0
-196 -22 -244 -55 -63 -42 -65 -27 -24 136 16 63 32 130 35 149 3 20 17 51 29
70 20 28 34 36 83 46 82 18 173 17 208 -1 60 -31 86 -10 89 71 2 32 -3 49 -18
63 -25 23 -103 32 -202 21z"/>
</g>
</svg>
